<svg xmlns="http://www.w3.org/2000/svg" xmlns:xlink="http://www.w3.org/1999/xlink" width="500" zoomAndPan="magnify" viewBox="0 0 375 374.999991" height="500" preserveAspectRatio="xMidYMid meet" version="1.0"><defs><g/><clipPath id="227df5333f"><path d="M 43.5 153.535156 L 115.222656 153.535156 L 115.222656 225.257812 L 43.5 225.257812 Z M 43.5 153.535156 " clip-rule="nonzero"/></clipPath><clipPath id="905f81f3e2"><path d="M 63 153.535156 L 95.722656 153.535156 C 106.492188 153.535156 115.222656 162.265625 115.222656 173.035156 L 115.222656 205.757812 C 115.222656 216.527344 106.492188 225.257812 95.722656 225.257812 L 63 225.257812 C 52.230469 225.257812 43.5 216.527344 43.5 205.757812 L 43.5 173.035156 C 43.5 162.265625 52.230469 153.535156 63 153.535156 Z M 63 153.535156 " clip-rule="nonzero"/></clipPath><clipPath id="a06073f690"><path d="M 50.632812 167.894531 L 64 167.894531 L 64 210.613281 L 50.632812 210.613281 Z M 50.632812 167.894531 " clip-rule="nonzero"/></clipPath><clipPath id="1d473d84c2"><path d="M 95 167.894531 L 108.210938 167.894531 L 108.210938 210.613281 L 95 210.613281 Z M 95 167.894531 " clip-rule="nonzero"/></clipPath></defs><g fill="#292929" fill-opacity="1"><g transform="translate(126.685412, 201.884576)"><g><path d="M 16.390625 0 L 2.140625 0 L 2.140625 -21.46875 L 1.65625 -23.421875 L 16.390625 -23.421875 L 16.390625 -20.25 L 6.53125 -20.25 L 6.53125 -13.625 L 14.078125 -13.625 L 14.078125 -10.46875 L 6.53125 -10.46875 L 6.53125 -3.171875 L 16.390625 -3.171875 Z M 16.390625 0 "/></g></g></g><g fill="#292929" fill-opacity="1"><g transform="translate(143.737086, 201.884576)"><g><path d="M 17.859375 -3.171875 L 17.46875 0 L 0.421875 0 L 0.421875 -2.625 L 11.640625 -20.28125 L 1.1875 -20.28125 L 1.1875 -23.421875 L 17.28125 -23.421875 L 17.28125 -21.09375 L 5.828125 -3.171875 Z M 17.859375 -3.171875 "/></g></g></g><g fill="#292929" fill-opacity="1"><g transform="translate(161.492584, 201.884576)"><g><path d="M 16.390625 0 L 2.140625 0 L 2.140625 -21.46875 L 1.65625 -23.421875 L 16.390625 -23.421875 L 16.390625 -20.25 L 6.53125 -20.25 L 6.53125 -13.625 L 14.078125 -13.625 L 14.078125 -10.46875 L 6.53125 -10.46875 L 6.53125 -3.171875 L 16.390625 -3.171875 Z M 16.390625 0 "/></g></g></g><g fill="#292929" fill-opacity="1"><g transform="translate(178.544259, 201.884576)"><g><path d="M 37.890625 5.21875 C 35.773438 5.9375 34.28125 6.394531 33.40625 6.59375 C 32.53125 6.800781 31.367188 6.90625 29.921875 6.90625 C 29.003906 6.90625 28 6.785156 26.90625 6.546875 C 25.820312 6.316406 24.625 5.957031 23.3125 5.46875 C 22 4.976562 20.914062 4.550781 20.0625 4.1875 C 19.207031 3.820312 18.03125 3.296875 16.53125 2.609375 C 15.039062 1.929688 14.109375 1.507812 13.734375 1.34375 C 13.085938 1.0625 11.71875 0.695312 9.625 0.25 C 6.53125 -0.40625 4.253906 -1.800781 2.796875 -3.9375 C 1.335938 -6.070312 0.609375 -8.640625 0.609375 -11.640625 C 0.609375 -13.242188 0.84375 -14.765625 1.3125 -16.203125 C 1.78125 -17.648438 2.460938 -18.941406 3.359375 -20.078125 C 4.253906 -21.222656 5.425781 -22.128906 6.875 -22.796875 C 8.332031 -23.472656 9.976562 -23.8125 11.8125 -23.8125 C 13.644531 -23.8125 15.285156 -23.472656 16.734375 -22.796875 C 18.179688 -22.128906 19.351562 -21.222656 20.25 -20.078125 C 21.144531 -18.941406 21.820312 -17.648438 22.28125 -16.203125 C 22.738281 -14.765625 22.96875 -13.242188 22.96875 -11.640625 C 22.96875 -9.398438 22.5 -7.316406 21.5625 -5.390625 C 20.625 -3.460938 19.15625 -1.953125 17.15625 -0.859375 L 17.53125 -0.671875 C 19.257812 0.160156 20.6875 0.832031 21.8125 1.34375 C 22.945312 1.851562 24.472656 2.40625 26.390625 3 C 28.316406 3.601562 29.929688 3.90625 31.234375 3.90625 C 32.679688 3.90625 34.65625 3.53125 37.15625 2.78125 Z M 18.265625 -11.640625 C 18.265625 -13.222656 18.0625 -14.671875 17.65625 -15.984375 C 17.257812 -17.296875 16.554688 -18.414062 15.546875 -19.34375 C 14.546875 -20.269531 13.300781 -20.734375 11.8125 -20.734375 C 10.332031 -20.734375 9.085938 -20.269531 8.078125 -19.34375 C 7.066406 -18.414062 6.359375 -17.289062 5.953125 -15.96875 C 5.546875 -14.644531 5.34375 -13.191406 5.34375 -11.609375 C 5.34375 -10.054688 5.546875 -8.632812 5.953125 -7.34375 C 6.359375 -6.050781 7.066406 -4.957031 8.078125 -4.0625 C 9.085938 -3.164062 10.332031 -2.71875 11.8125 -2.71875 C 13.988281 -2.71875 15.609375 -3.585938 16.671875 -5.328125 C 17.734375 -7.066406 18.265625 -9.171875 18.265625 -11.640625 Z M 18.265625 -11.640625 "/></g></g></g><g fill="#292929" fill-opacity="1"><g transform="translate(201.610455, 201.884576)"><g><path d="M 20.609375 -8.890625 C 20.609375 -5.710938 19.769531 -3.375 18.09375 -1.875 C 16.414062 -0.382812 14.179688 0.359375 11.390625 0.359375 C 8.421875 0.359375 6.140625 -0.4375 4.546875 -2.03125 C 2.960938 -3.625 2.171875 -5.910156 2.171875 -8.890625 L 2.171875 -21.5 L 1.65625 -23.421875 L 6.6875 -23.421875 L 6.6875 -7.84375 C 6.6875 -6.28125 7.15625 -5.03125 8.09375 -4.09375 C 9.03125 -3.15625 10.28125 -2.6875 11.84375 -2.6875 C 13.414062 -2.6875 14.664062 -3.144531 15.59375 -4.0625 C 16.519531 -4.976562 16.984375 -6.238281 16.984375 -7.84375 L 16.984375 -23.421875 L 20.609375 -23.421875 Z M 20.609375 -8.890625 "/></g></g></g><g fill="#292929" fill-opacity="1"><g transform="translate(223.716897, 201.884576)"><g><path d="M 6.53125 0 L 2.109375 0 L 2.109375 -21.46875 C 2.109375 -21.488281 2.070312 -21.648438 2 -21.953125 C 1.925781 -22.253906 1.847656 -22.5625 1.765625 -22.875 C 1.691406 -23.195312 1.65625 -23.378906 1.65625 -23.421875 L 6.53125 -23.421875 Z M 6.53125 0 "/></g></g></g><g fill="#292929" fill-opacity="1"><g transform="translate(231.778778, 201.884576)"><g><path d="M 20.125 0 L 15.390625 0 L 13.09375 -6.71875 L 6.171875 -6.71875 L 3.78125 0 L 0.0625 0 L 8.359375 -23.421875 L 11.84375 -23.421875 Z M 12.03125 -9.859375 C 11.007812 -12.992188 10.195312 -15.660156 9.59375 -17.859375 C 8.875 -15.191406 8.097656 -12.523438 7.265625 -9.859375 Z M 12.03125 -9.859375 "/></g></g></g><g fill="#292929" fill-opacity="1"><g transform="translate(251.453803, 201.884576)"><g><path d="M 15.875 -6.875 C 15.875 -4.613281 15.078125 -2.835938 13.484375 -1.546875 C 11.898438 -0.253906 9.953125 0.390625 7.640625 0.390625 C 4.722656 0.390625 2.21875 -0.226562 0.125 -1.46875 L 1.625 -5.03125 C 3.289062 -3.46875 5.160156 -2.6875 7.234375 -2.6875 C 8.316406 -2.6875 9.25 -2.984375 10.03125 -3.578125 C 10.8125 -4.179688 11.203125 -5.015625 11.203125 -6.078125 C 11.203125 -6.847656 10.941406 -7.53125 10.421875 -8.125 C 9.910156 -8.726562 9.273438 -9.195312 8.515625 -9.53125 C 7.765625 -9.875 6.941406 -10.273438 6.046875 -10.734375 C 5.148438 -11.191406 4.320312 -11.65625 3.5625 -12.125 C 2.8125 -12.59375 2.175781 -13.257812 1.65625 -14.125 C 1.144531 -14.988281 0.890625 -15.988281 0.890625 -17.125 C 0.890625 -19.320312 1.648438 -20.984375 3.171875 -22.109375 C 4.703125 -23.242188 6.738281 -23.8125 9.28125 -23.8125 C 10.238281 -23.8125 11.347656 -23.617188 12.609375 -23.234375 C 13.867188 -22.847656 14.828125 -22.398438 15.484375 -21.890625 L 13.28125 -19.140625 C 12.082031 -20.203125 10.609375 -20.734375 8.859375 -20.734375 C 7.960938 -20.734375 7.1875 -20.5 6.53125 -20.03125 C 5.882812 -19.5625 5.5625 -18.898438 5.5625 -18.046875 C 5.5625 -17.296875 5.816406 -16.640625 6.328125 -16.078125 C 6.847656 -15.515625 7.484375 -15.0625 8.234375 -14.71875 C 8.992188 -14.375 9.820312 -13.96875 10.71875 -13.5 C 11.613281 -13.03125 12.441406 -12.554688 13.203125 -12.078125 C 13.960938 -11.597656 14.597656 -10.910156 15.109375 -10.015625 C 15.617188 -9.117188 15.875 -8.070312 15.875 -6.875 Z M 15.875 -6.875 "/></g></g></g><g fill="#292929" fill-opacity="1"><g transform="translate(267.449735, 201.884576)"><g><path d="M 5.125 -3.84375 C 5.613281 -3.351562 5.859375 -2.765625 5.859375 -2.078125 C 5.859375 -1.398438 5.617188 -0.816406 5.140625 -0.328125 C 4.660156 0.148438 4.078125 0.390625 3.390625 0.390625 C 2.710938 0.390625 2.128906 0.148438 1.640625 -0.328125 C 1.160156 -0.816406 0.921875 -1.398438 0.921875 -2.078125 C 0.921875 -2.765625 1.160156 -3.351562 1.640625 -3.84375 C 2.128906 -4.332031 2.710938 -4.578125 3.390625 -4.578125 C 4.078125 -4.578125 4.65625 -4.332031 5.125 -3.84375 Z M 5.125 -3.84375 "/></g></g></g><g fill="#0b1c98" fill-opacity="1"><g transform="translate(274.236187, 201.884576)"><g><path d="M 21.765625 -11.6875 C 21.765625 -8.09375 20.664062 -5.210938 18.46875 -3.046875 C 16.4375 -1.015625 13.769531 0 10.46875 0 L 2.140625 0 L 2.140625 -21.46875 C 2.140625 -21.488281 2.054688 -21.800781 1.890625 -22.40625 C 1.734375 -23.019531 1.644531 -23.359375 1.625 -23.421875 L 10.5 -23.421875 C 14.019531 -23.421875 16.773438 -22.347656 18.765625 -20.203125 C 20.765625 -18.054688 21.765625 -15.21875 21.765625 -11.6875 Z M 17.03125 -11.546875 C 17.03125 -13.085938 16.816406 -14.484375 16.390625 -15.734375 C 15.960938 -16.992188 15.21875 -18.0625 14.15625 -18.9375 C 13.101562 -19.8125 11.785156 -20.25 10.203125 -20.25 L 6.5625 -20.25 L 6.5625 -3.171875 L 10.265625 -3.171875 C 11.441406 -3.171875 12.476562 -3.398438 13.375 -3.859375 C 14.269531 -4.316406 14.972656 -4.941406 15.484375 -5.734375 C 15.992188 -6.535156 16.378906 -7.421875 16.640625 -8.390625 C 16.898438 -9.367188 17.03125 -10.421875 17.03125 -11.546875 Z M 17.03125 -11.546875 "/></g></g></g><g fill="#0b1c98" fill-opacity="1"><g transform="translate(296.086678, 201.884576)"><g><path d="M 16.390625 0 L 2.140625 0 L 2.140625 -21.46875 L 1.65625 -23.421875 L 16.390625 -23.421875 L 16.390625 -20.25 L 6.53125 -20.25 L 6.53125 -13.625 L 14.078125 -13.625 L 14.078125 -10.46875 L 6.53125 -10.46875 L 6.53125 -3.171875 L 16.390625 -3.171875 Z M 16.390625 0 "/></g></g></g><g fill="#0b1c98" fill-opacity="1"><g transform="translate(313.138352, 201.884576)"><g><path d="M 19.296875 -23.390625 L 11.203125 0.0625 L 8.0625 0.0625 L 0 -23.390625 L 4.671875 -23.390625 C 7.578125 -14.941406 9.101562 -10.484375 9.25 -10.015625 C 9.550781 -9.078125 9.859375 -7.863281 10.171875 -6.375 C 10.472656 -7.820312 10.890625 -9.28125 11.421875 -10.75 L 15.75 -23.390625 Z M 19.296875 -23.390625 "/></g></g></g><g clip-path="url(#227df5333f)"><g clip-path="url(#905f81f3e2)"><path fill="#0b1c98" d="M 43.5 153.535156 L 115.222656 153.535156 L 115.222656 225.257812 L 43.5 225.257812 Z M 43.5 153.535156 " fill-opacity="1" fill-rule="nonzero"/></g></g><g clip-path="url(#a06073f690)"><path fill="#efefef" d="M 62.585938 172.671875 L 63.777344 172.671875 L 63.777344 167.894531 L 62.585938 167.894531 C 58.625 167.894531 55.417969 171.101562 55.417969 175.0625 L 55.417969 183.425781 C 55.417969 184.175781 55.0625 184.882812 54.460938 185.335938 L 51.59375 187.484375 C 51.019531 187.917969 50.667969 188.582031 50.640625 189.296875 C 50.609375 190.015625 50.902344 190.707031 51.441406 191.183594 L 54.613281 194.003906 C 55.125 194.457031 55.417969 195.109375 55.417969 195.789062 L 55.417969 203.734375 C 55.417969 207.691406 58.625 210.902344 62.585938 210.902344 L 63.777344 210.902344 L 63.777344 206.121094 L 62.585938 206.121094 C 61.265625 206.121094 60.195312 205.050781 60.195312 203.734375 L 60.195312 195.789062 C 60.195312 193.742188 59.320312 191.792969 57.789062 190.433594 L 56.800781 189.554688 L 57.328125 189.160156 C 59.132812 187.804688 60.195312 185.679688 60.195312 183.425781 L 60.195312 175.0625 C 60.195312 173.742188 61.265625 172.671875 62.585938 172.671875 Z M 62.585938 172.671875 " fill-opacity="1" fill-rule="evenodd"/></g><g clip-path="url(#1d473d84c2)"><path fill="#efefef" d="M 96.367188 172.671875 L 95.171875 172.671875 L 95.171875 167.894531 L 96.367188 167.894531 C 100.324219 167.894531 103.53125 171.101562 103.53125 175.0625 L 103.53125 183.425781 C 103.53125 184.175781 103.886719 184.882812 104.488281 185.335938 L 107.355469 187.484375 C 107.929688 187.917969 108.28125 188.582031 108.308594 189.296875 C 108.339844 190.015625 108.046875 190.707031 107.507812 191.183594 L 104.335938 194.003906 C 103.824219 194.457031 103.53125 195.109375 103.53125 195.789062 L 103.53125 203.734375 C 103.53125 207.691406 100.324219 210.902344 96.367188 210.902344 L 95.171875 210.902344 L 95.171875 206.121094 L 96.367188 206.121094 C 97.683594 206.121094 98.753906 205.050781 98.753906 203.734375 L 98.753906 195.789062 C 98.753906 193.742188 99.628906 191.792969 101.160156 190.433594 L 102.148438 189.554688 L 101.621094 189.160156 C 99.816406 187.804688 98.753906 185.679688 98.753906 183.425781 L 98.753906 175.0625 C 98.753906 173.742188 97.683594 172.671875 96.367188 172.671875 Z M 96.367188 172.671875 " fill-opacity="1" fill-rule="evenodd"/></g><g fill="#ffffff" fill-opacity="1"><g transform="translate(68.112635, 203.855238)"><g><path d="M 21.875 0 L 2.859375 0 L 2.859375 -28.671875 L 2.21875 -31.265625 L 21.875 -31.265625 L 21.875 -27.046875 L 8.71875 -27.046875 L 8.71875 -18.203125 L 18.796875 -18.203125 L 18.796875 -13.96875 L 8.71875 -13.96875 L 8.71875 -4.234375 L 21.875 -4.234375 Z M 21.875 0 "/></g></g></g></svg>