<?xml version="1.0" encoding="iso-8859-1"?>
<!-- Generator: Adobe Illustrator 22.1.0, SVG Export Plug-In . SVG Version: 6.00 Build 0)  -->
<svg version="1.1" id="Layer_1" xmlns="http://www.w3.org/2000/svg" xmlns:xlink="http://www.w3.org/1999/xlink" x="0px" y="0px"
	 viewBox="0 0 50 50" style="enable-background:new 0 0 50 50;" xml:space="preserve">
<g>
</g>
<path d="M43,5H8C6.346,5,5,6.346,5,8v35c0,1.654,1.346,3,3,3h6V17.5c0-3.033,2.467-5.5,5.5-5.5H27c5.514,0,10,4.486,10,10
	s-4.486,10-10,10h-8v14h24c1.654,0,3-1.346,3-3V8C46,6.346,44.654,5,43,5z"/>
<path d="M32,22c0-2.757-2.243-5-5-5h-8v10h8C29.757,27,32,24.757,32,22z"/>
</svg>